<?xml version="1.0" encoding="UTF-8" standalone="no"?>
<svg
   xmlns:dc="http://purl.org/dc/elements/1.1/"
   xmlns:cc="http://creativecommons.org/ns#"
   xmlns:rdf="http://www.w3.org/1999/02/22-rdf-syntax-ns#"
   xmlns:svg="http://www.w3.org/2000/svg"
   xmlns="http://www.w3.org/2000/svg"
   xmlns:sodipodi="http://sodipodi.sourceforge.net/DTD/sodipodi-0.dtd"
   xmlns:inkscape="http://www.inkscape.org/namespaces/inkscape"
   viewBox="0 0 448.01432 448.0153"
   version="1.1"
   id="svg58"
   sodipodi:docname="python.svg"
   inkscape:version="1.0.2 (e86c870879, 2021-01-15)"
   width="336.01074pt"
   height="336.01147pt">
  <metadata
     id="metadata64">
    <rdf:RDF>
      <cc:Work
         rdf:about="">
        <dc:format>image/svg+xml</dc:format>
        <dc:type
           rdf:resource="http://purl.org/dc/dcmitype/StillImage" />
        <dc:title></dc:title>
      </cc:Work>
    </rdf:RDF>
  </metadata>
  <defs
     id="defs62">
    <filter
       style="color-interpolation-filters:sRGB"
       inkscape:label="Drop Shadow"
       id="filter462">
      <feFlood
         flood-opacity="0.498039"
         flood-color="rgb(0,0,255)"
         result="flood"
         id="feFlood452" />
      <feComposite
         in="flood"
         in2="SourceGraphic"
         operator="in"
         result="composite1"
         id="feComposite454" />
      <feGaussianBlur
         in="composite1"
         stdDeviation="10"
         result="blur"
         id="feGaussianBlur456" />
      <feOffset
         dx="6"
         dy="6"
         result="offset"
         id="feOffset458" />
      <feComposite
         in="SourceGraphic"
         in2="offset"
         operator="over"
         result="composite2"
         id="feComposite460" />
    </filter>
    <filter
       style="color-interpolation-filters:sRGB"
       inkscape:label="Drop Shadow"
       id="filter1104">
      <feFlood
         flood-opacity="0.498039"
         flood-color="rgb(0,0,255)"
         result="flood"
         id="feFlood1094" />
      <feComposite
         in="flood"
         in2="SourceGraphic"
         operator="in"
         result="composite1"
         id="feComposite1096" />
      <feGaussianBlur
         in="composite1"
         stdDeviation="60"
         result="blur"
         id="feGaussianBlur1098" />
      <feOffset
         dx="30"
         dy="30"
         result="offset"
         id="feOffset1100" />
      <feComposite
         in="SourceGraphic"
         in2="offset"
         operator="over"
         result="composite2"
         id="feComposite1102" />
    </filter>
  </defs>
  <sodipodi:namedview
     pagecolor="#161925"
     bordercolor="#666666"
     borderopacity="1"
     objecttolerance="10"
     gridtolerance="10"
     guidetolerance="10"
     inkscape:pageopacity="0"
     inkscape:pageshadow="2"
     inkscape:window-width="1366"
     inkscape:window-height="743"
     id="namedview60"
     showgrid="false"
     inkscape:pagecheckerboard="true"
     units="pt"
     inkscape:zoom="1.0996094"
     inkscape:cx="217.37235"
     inkscape:cy="217.70537"
     inkscape:window-x="0"
     inkscape:window-y="25"
     inkscape:window-maximized="1"
     inkscape:current-layer="svg58"
     fit-margin-top="0"
     fit-margin-left="0"
     fit-margin-right="0"
     fit-margin-bottom="0"
     inkscape:document-rotation="0" />
  <!-- Font Awesome Free 5.15.4 by @fontawesome - https://fontawesome.com License - https://fontawesome.com/license/free (Icons: CC BY 4.0, Fonts: SIL OFL 1.1, Code: MIT License) -->
  <path
     d="m 439.80075,168.50129 c -7.7,-30.9 -22.3,-54.2 -53.4,-54.2 h -40.1 v 47.4 c 0,36.8 -31.2,67.8 -66.8,67.8 h -106.8 c -29.2,0 -53.4,25 -53.4,54.3 v 101.8 c 0,29 25.2,46 53.4,54.3 33.8,9.9 66.3,11.7 106.8,0 26.9,-7.8 53.4,-23.5 53.4,-54.3 v -40.7 h -106.7 v -13.6 h 160.2 c 31.1,0 42.6,-21.7 53.4,-54.2 11.2,-33.5 10.7,-65.7 0,-108.6 z m -153.6,203.5 c 11.1,0 20.1,9.1 20.1,20.3 0,11.3 -9,20.4 -20.1,20.4 -11,0 -20.1,-9.2 -20.1,-20.4 0.1,-11.3 9.1,-20.3 20.1,-20.3 z m -118.4,-155.9 h 106.8 c 29.7,0 53.4,-24.5 53.4,-54.3 V 59.901293 c 0,-29 -24.4,-50.7000004 -53.4,-55.6000004 -35.8,-5.9 -74.7,-5.6 -106.8,0.1 -45.2,8.0000004 -53.4,24.7000004 -53.4,55.6000004 v 40.699997 h 106.9 v 13.6 h -147 c -31.1,0 -58.3,18.7 -66.8000001,54.2 -9.8,40.7 -10.2,66.1 0,108.6 7.6000001,31.6 25.7000001,54.2 56.8000001,54.2 h 36.7 v -48.8 c 0,-35.3 30.5,-66.4 66.8,-66.4 z m -6.7,-142.599996 c -11.1,0 -20.1,-9.100001 -20.1,-20.300001 0.1,-11.3 9,-20.4 20.1,-20.4 11,0 20.1,9.2 20.1,20.4 0,11.2 -9,20.300001 -20.1,20.300001 z"
     id="path1454"
     style="fill:#ffffff" />
</svg>
